<?xml version="1.0" encoding="utf-8"?>
<!-- Generator: Adobe Illustrator 21.0.0, SVG Export Plug-In . SVG Version: 6.00 Build 0)  -->
<svg version="1.1" xmlns="http://www.w3.org/2000/svg" xmlns:xlink="http://www.w3.org/1999/xlink" x="0px" y="0px"
	 viewBox="0 0 70 70" style="enable-background:new 0 0 70 70;" xml:space="preserve">
<style type="text/css">
	.st0{display:none;}
	.st1{display:inline;}
	.st2{display:inline;fill:none;stroke:#000000;stroke-width:2;stroke-miterlimit:10;}
	.st3{fill:#FFFFFF;}
	.st4{fill:none;stroke:#FFFFFF;stroke-width:2;stroke-miterlimit:10;}
</style>
<g id="Layer_1" class="st0">
	<g class="st1">
		<path d="M35,2.4c17.9,0,32.6,14.6,32.6,32.6S52.9,67.6,35,67.6S2.4,52.9,2.4,35S17.1,2.4,35,2.4 M35,0.4C15.9,0.4,0.4,15.9,0.4,35
			S15.9,69.6,35,69.6S69.6,54.1,69.6,35S54.1,0.4,35,0.4L35,0.4z"/>
	</g>
	<path class="st2" d="M14.8,28c0-4.2,3.4-7.5,7.5-7.5s7.5,3.4,7.5,7.5"/>
	<path class="st2" d="M40.2,28c0-4.2,3.4-7.5,7.5-7.5s7.5,3.4,7.5,7.5"/>
	<path class="st2" d="M47.8,37c0,6.2-5.7,11.1-12.8,11.1s-12.8-5-12.8-11.1"/>
</g>
<g id="Layer_1_copy">
	<g>
		<path class="st3" d="M35,2.4c17.9,0,32.6,14.6,32.6,32.6S52.9,67.6,35,67.6S2.4,52.9,2.4,35S17.1,2.4,35,2.4 M35,0.4
			C15.9,0.4,0.4,15.9,0.4,35S15.9,69.6,35,69.6S69.6,54.1,69.6,35S54.1,0.4,35,0.4L35,0.4z"/>
	</g>
	<path class="st4" d="M14.8,28c0-4.2,3.4-7.5,7.5-7.5s7.5,3.4,7.5,7.5"/>
	<path class="st4" d="M40.2,28c0-4.2,3.4-7.5,7.5-7.5s7.5,3.4,7.5,7.5"/>
	<line class="st4" x1="18.3" y1="44.2" x2="51.7" y2="44.2"/>
</g>
</svg>
