<?xml version="1.0" encoding="utf-8"?>
<!-- Generator: Adobe Illustrator 21.0.0, SVG Export Plug-In . SVG Version: 6.00 Build 0)  -->
<svg version="1.1" id="Layer_1" xmlns="http://www.w3.org/2000/svg" xmlns:xlink="http://www.w3.org/1999/xlink" x="0px" y="0px"
	 viewBox="0 0 50 50" style="enable-background:new 0 0 50 50;" xml:space="preserve">
<style type="text/css">
	.st0{fill:#FFFFFF;}
</style>
<g>
	<path class="st0" d="M25,0C11.2,0,0,11.2,0,25s11.2,25,25,25s25-11.2,25-25S38.8,0,25,0z M32.4,37.4L25,29.9l0,0l0,0l-7.4,7.4
		l-4.9-4.9l7.4-7.4l0,0l0,0l-7.4-7.4l4.9-4.9l7.4,7.4l0,0l0,0l7.4-7.4l4.9,4.9L30,25l7.4,7.4L32.4,37.4z"/>
	<polygon class="st0" points="20.1,25 20.1,25 20.1,25 20,25 	"/>
	<rect x="25" y="29.9" transform="matrix(0.8315 -0.5555 0.5555 0.8315 -12.4124 18.929)" class="st0" width="0" height="0"/>
	<polygon class="st0" points="25,20.1 25,20.1 25,20 25,20.1 	"/>
</g>
</svg>
