<?xml version="1.0" encoding="utf-8"?>
<!-- Generator: Adobe Illustrator 21.0.0, SVG Export Plug-In . SVG Version: 6.00 Build 0)  -->
<svg version="1.1" id="Layer_1" xmlns="http://www.w3.org/2000/svg" xmlns:xlink="http://www.w3.org/1999/xlink" x="0px" y="0px"
	 viewBox="0 0 70 70" style="enable-background:new 0 0 70 70;" xml:space="preserve">
<style type="text/css">
	.st0{fill:#FFFFFF;}
	.st1{fill:none;stroke:#FFFFFF;stroke-width:2;stroke-miterlimit:10;}
</style>
<g id="Layer_1_copy_2">
	<g>
		<path class="st0" d="M35,2.4C52.9,2.4,67.6,17,67.6,35S52.9,67.6,35,67.6S2.4,52.9,2.4,35S17.1,2.4,35,2.4 M35,0.4
			C15.9,0.4,0.4,15.9,0.4,35S15.9,69.6,35,69.6S69.6,54.1,69.6,35S54.1,0.4,35,0.4L35,0.4z"/>
	</g>
	<path class="st1" d="M22.2,48.2C22.2,42,27.9,37,35,37s12.8,5,12.8,11.1"/>
	<g>
		<line class="st1" x1="13.8" y1="24.2" x2="29.3" y2="24.2"/>
		<line class="st1" x1="56.2" y1="24.2" x2="40.7" y2="24.2"/>
	</g>
</g>
</svg>
